<?xml version="1.0" encoding="utf-8"?>
<!-- Generator: Adobe Illustrator 22.0.1, SVG Export Plug-In . SVG Version: 6.00 Build 0)  -->
<svg version="1.1" id="Layer_1" xmlns="http://www.w3.org/2000/svg" xmlns:xlink="http://www.w3.org/1999/xlink" x="0px" y="0px"
	 viewBox="0 0 5000 5000" style="enable-background:new 0 0 5000 5000;" xml:space="preserve">
<style type="text/css">
	.st0{fill:#2294C6;}
	.st1{fill:#FFFFFF;}
</style>
<circle class="st0" cx="2500" cy="2500" r="2346.3"/>
<g>
	<path class="st1" d="M3767.3,3449.2H1852.2c-352,0-637.3-425-637.3-949.2v0c0-524.2,285.3-949.2,637.3-949.2h1934.2
		c69.6,0,133.1-59.3,163.3-152.6l35.7-110H1828.1c-449.3,0-813.6,542.6-813.6,1211.9v0c0,669.3,364.3,1211.9,813.6,1211.9h2157.3
		l-27.4-84.4C3922.7,3518.5,3848.6,3449.2,3767.3,3449.2z"/>
	<path class="st1" d="M3763.7,2620.4c-15.1,26.8-36.3,42-58.4,42H1761.5c-46.8,0-84.7-72.5-84.7-161.9v0
		c0-89.4,37.9-161.9,84.7-161.9h1945.5c21.1,0,41.4,13.8,56.3,38.4l71.2,117.2L3763.7,2620.4z"/>
</g>
</svg>
